<mxfile host="app.diagrams.net" modified="2021-12-13T17:05:05.514Z" agent="5.0 (Windows NT 10.0; Win64; x64) AppleWebKit/537.36 (KHTML, like Gecko) Chrome/96.0.4664.93 Safari/537.36" etag="l0ngj9qTBp81wIT_6R1i" version="15.8.2" type="github" pages="2">
  <diagram id="C5RBs43oDa-KdzZeNtuy" name="Page-1">
    <mxGraphModel dx="2782" dy="2174" grid="1" gridSize="10" guides="1" tooltips="1" connect="1" arrows="1" fold="1" page="1" pageScale="1" pageWidth="827" pageHeight="1169" math="0" shadow="0">
      <root>
        <mxCell id="WIyWlLk6GJQsqaUBKTNV-0" />
        <mxCell id="WIyWlLk6GJQsqaUBKTNV-1" parent="WIyWlLk6GJQsqaUBKTNV-0" />
        <mxCell id="zkfFHV4jXpPFQw0GAbJ--0" value="EdgeData" style="swimlane;fontStyle=2;align=center;verticalAlign=top;childLayout=stackLayout;horizontal=1;startSize=26;horizontalStack=0;resizeParent=1;resizeLast=0;collapsible=1;marginBottom=0;rounded=0;shadow=0;strokeWidth=1;fillColor=#97D077;" parent="WIyWlLk6GJQsqaUBKTNV-1" vertex="1">
          <mxGeometry x="170" y="-10" width="150" height="230" as="geometry">
            <mxRectangle x="220" y="120" width="160" height="26" as="alternateBounds" />
          </mxGeometry>
        </mxCell>
        <mxCell id="zkfFHV4jXpPFQw0GAbJ--1" value="getSrc():  int " style="text;align=left;verticalAlign=top;spacingLeft=4;spacingRight=4;overflow=hidden;rotatable=0;points=[[0,0.5],[1,0.5]];portConstraint=eastwest;" parent="zkfFHV4jXpPFQw0GAbJ--0" vertex="1">
          <mxGeometry y="26" width="150" height="26" as="geometry" />
        </mxCell>
        <mxCell id="zkfFHV4jXpPFQw0GAbJ--2" value="getDest(): int" style="text;align=left;verticalAlign=top;spacingLeft=4;spacingRight=4;overflow=hidden;rotatable=0;points=[[0,0.5],[1,0.5]];portConstraint=eastwest;rounded=0;shadow=0;html=0;" parent="zkfFHV4jXpPFQw0GAbJ--0" vertex="1">
          <mxGeometry y="52" width="150" height="26" as="geometry" />
        </mxCell>
        <mxCell id="zkfFHV4jXpPFQw0GAbJ--3" value="getWeight() : double&#xa;&#xa;getInfo(): string&#xa;&#xa;setInfo(): void&#xa;&#xa;getTag(): int&#xa;&#xa;setTag(): void &#xa;" style="text;align=left;verticalAlign=top;spacingLeft=4;spacingRight=4;overflow=hidden;rotatable=0;points=[[0,0.5],[1,0.5]];portConstraint=eastwest;rounded=0;shadow=0;html=0;" parent="zkfFHV4jXpPFQw0GAbJ--0" vertex="1">
          <mxGeometry y="78" width="150" height="132" as="geometry" />
        </mxCell>
        <mxCell id="zkfFHV4jXpPFQw0GAbJ--6" value="Edge" style="swimlane;fontStyle=0;align=center;verticalAlign=top;childLayout=stackLayout;horizontal=1;startSize=26;horizontalStack=0;resizeParent=1;resizeLast=0;collapsible=1;marginBottom=0;rounded=0;shadow=0;strokeWidth=1;fillColor=#99CCFF;" parent="WIyWlLk6GJQsqaUBKTNV-1" vertex="1">
          <mxGeometry x="10" y="250" width="190" height="516" as="geometry">
            <mxRectangle x="130" y="380" width="160" height="26" as="alternateBounds" />
          </mxGeometry>
        </mxCell>
        <mxCell id="zkfFHV4jXpPFQw0GAbJ--7" value="src: int&#xa;&#xa;dest: int&#xa;&#xa;weight: double&#xa;&#xa;info: string&#xa;&#xa;tag: int &#xa;&#xa;&#xa;" style="text;align=left;verticalAlign=top;spacingLeft=4;spacingRight=4;overflow=hidden;rotatable=0;points=[[0,0.5],[1,0.5]];portConstraint=eastwest;" parent="zkfFHV4jXpPFQw0GAbJ--6" vertex="1">
          <mxGeometry y="26" width="190" height="134" as="geometry" />
        </mxCell>
        <mxCell id="zkfFHV4jXpPFQw0GAbJ--9" value="" style="line;html=1;strokeWidth=1;align=left;verticalAlign=middle;spacingTop=-1;spacingLeft=3;spacingRight=3;rotatable=0;labelPosition=right;points=[];portConstraint=eastwest;" parent="zkfFHV4jXpPFQw0GAbJ--6" vertex="1">
          <mxGeometry y="160" width="190" height="40" as="geometry" />
        </mxCell>
        <mxCell id="LcgxgDH8Ww4sK2gUJoQu-1" value="Edge(s: int , w: double, d:int)&#xa;&#xa;Edge( src: int , dest:int , weight: &#xa;           double ,tag:int , info:string)&#xa;&#xa;copy(): Edge&#xa;&#xa;getSrc():  int &#xa;&#xa;getDest(): int&#xa;&#xa;getWeight() : double&#xa;&#xa;getInfo(): string&#xa;&#xa;setInfo(): void&#xa;&#xa;getTag(): int&#xa;&#xa;setTag(): void &#xa;&#xa;&#xa;&#xa;" style="text;align=left;verticalAlign=top;spacingLeft=4;spacingRight=4;overflow=hidden;rotatable=0;points=[[0,0.5],[1,0.5]];portConstraint=eastwest;" vertex="1" parent="zkfFHV4jXpPFQw0GAbJ--6">
          <mxGeometry y="200" width="190" height="316" as="geometry" />
        </mxCell>
        <mxCell id="zkfFHV4jXpPFQw0GAbJ--13" value="DirectedWeightedGraph" style="swimlane;fontStyle=0;align=center;verticalAlign=top;childLayout=stackLayout;horizontal=1;startSize=26;horizontalStack=0;resizeParent=1;resizeLast=0;collapsible=1;marginBottom=0;rounded=0;shadow=0;strokeWidth=1;strokeColor=#000000;fillColor=#97D077;" parent="WIyWlLk6GJQsqaUBKTNV-1" vertex="1">
          <mxGeometry x="425" y="700" width="260" height="410" as="geometry">
            <mxRectangle x="340" y="380" width="170" height="26" as="alternateBounds" />
          </mxGeometry>
        </mxCell>
        <mxCell id="sZSXKO09oTRAToCc3Uu1-24" value="&#xa;getNode( int key): NodeData&#xa;&#xa;getEdge(int src , int dest) : EdgeData&#xa;&#xa;addNode( NodeData n): void&#xa;&#xa;connect( int src , int dest ,double w): void&#xa;&#xa;nodeIter(): Iterator &lt; NodaData&gt; &#xa;&#xa;edgeIter(): Iterator &lt; EdgaData&gt; &#xa;&#xa;edgaIter( int node_id) : Iterator &lt; EdgaData&gt;&#xa;&#xa;removeNode( int key) : NodeData&#xa;&#xa;removeEdge(int src , int dest) : EdgaData&#xa;&#xa;nodeSize(): int&#xa;&#xa;edgaSize(): int &#xa;&#xa;getMC(): int &#xa;&#xa;&#xa;&#xa;&#xa;&#xa;&#xa;&#xa;" style="text;align=left;verticalAlign=top;spacingLeft=4;spacingRight=4;overflow=hidden;rotatable=0;points=[[0,0.5],[1,0.5]];portConstraint=eastwest;fillColor=none;strokeColor=#000000;" vertex="1" parent="zkfFHV4jXpPFQw0GAbJ--13">
          <mxGeometry y="26" width="260" height="384" as="geometry" />
        </mxCell>
        <mxCell id="zkfFHV4jXpPFQw0GAbJ--17" value="GeoLocation" style="swimlane;fontStyle=0;align=center;verticalAlign=top;childLayout=stackLayout;horizontal=1;startSize=26;horizontalStack=0;resizeParent=1;resizeLast=0;collapsible=1;marginBottom=0;rounded=0;shadow=0;strokeWidth=1;fillColor=#97D077;" parent="WIyWlLk6GJQsqaUBKTNV-1" vertex="1">
          <mxGeometry x="610" y="20" width="190" height="160" as="geometry">
            <mxRectangle x="508" y="120" width="160" height="26" as="alternateBounds" />
          </mxGeometry>
        </mxCell>
        <mxCell id="zkfFHV4jXpPFQw0GAbJ--19" value="x(): double" style="text;align=left;verticalAlign=top;spacingLeft=4;spacingRight=4;overflow=hidden;rotatable=0;points=[[0,0.5],[1,0.5]];portConstraint=eastwest;rounded=0;shadow=0;html=0;" parent="zkfFHV4jXpPFQw0GAbJ--17" vertex="1">
          <mxGeometry y="26" width="190" height="26" as="geometry" />
        </mxCell>
        <mxCell id="zkfFHV4jXpPFQw0GAbJ--20" value="y(): double" style="text;align=left;verticalAlign=top;spacingLeft=4;spacingRight=4;overflow=hidden;rotatable=0;points=[[0,0.5],[1,0.5]];portConstraint=eastwest;rounded=0;shadow=0;html=0;" parent="zkfFHV4jXpPFQw0GAbJ--17" vertex="1">
          <mxGeometry y="52" width="190" height="26" as="geometry" />
        </mxCell>
        <mxCell id="zkfFHV4jXpPFQw0GAbJ--18" value="z(): double" style="text;align=left;verticalAlign=top;spacingLeft=4;spacingRight=4;overflow=hidden;rotatable=0;points=[[0,0.5],[1,0.5]];portConstraint=eastwest;" parent="zkfFHV4jXpPFQw0GAbJ--17" vertex="1">
          <mxGeometry y="78" width="190" height="26" as="geometry" />
        </mxCell>
        <mxCell id="zkfFHV4jXpPFQw0GAbJ--22" value="distance(GeoLocation g) : double" style="text;align=left;verticalAlign=top;spacingLeft=4;spacingRight=4;overflow=hidden;rotatable=0;points=[[0,0.5],[1,0.5]];portConstraint=eastwest;rounded=0;shadow=0;html=0;" parent="zkfFHV4jXpPFQw0GAbJ--17" vertex="1">
          <mxGeometry y="104" width="190" height="26" as="geometry" />
        </mxCell>
        <mxCell id="sZSXKO09oTRAToCc3Uu1-0" value="NodeData" style="swimlane;fontStyle=0;align=center;verticalAlign=top;childLayout=stackLayout;horizontal=1;startSize=26;horizontalStack=0;resizeParent=1;resizeLast=0;collapsible=1;marginBottom=0;rounded=0;shadow=0;strokeWidth=1;fillColor=#97D077;" vertex="1" parent="WIyWlLk6GJQsqaUBKTNV-1">
          <mxGeometry x="340" y="240" width="200" height="300" as="geometry">
            <mxRectangle x="508" y="120" width="160" height="26" as="alternateBounds" />
          </mxGeometry>
        </mxCell>
        <mxCell id="sZSXKO09oTRAToCc3Uu1-2" value="getKey(): int&#xa;&#xa;getLocation(): GetLocation&#xa;&#xa;setLocation(GetLocation g): void&#xa;&#xa;getWeight(): double&#xa;&#xa;setWeight( double w): void &#xa;&#xa;getInfo(): string&#xa;&#xa;setInfo( string s): void &#xa;&#xa;getTag(): int&#xa;&#xa;setTag(int i) : void  &#xa;" style="text;align=left;verticalAlign=top;spacingLeft=4;spacingRight=4;overflow=hidden;rotatable=0;points=[[0,0.5],[1,0.5]];portConstraint=eastwest;rounded=0;shadow=0;html=0;" vertex="1" parent="sZSXKO09oTRAToCc3Uu1-0">
          <mxGeometry y="26" width="200" height="274" as="geometry" />
        </mxCell>
        <mxCell id="sZSXKO09oTRAToCc3Uu1-19" value="" style="endArrow=classic;html=1;rounded=0;" edge="1" parent="WIyWlLk6GJQsqaUBKTNV-1">
          <mxGeometry width="50" height="50" relative="1" as="geometry">
            <mxPoint x="610" y="150" as="sourcePoint" />
            <mxPoint x="510" y="230" as="targetPoint" />
          </mxGeometry>
        </mxCell>
        <mxCell id="sZSXKO09oTRAToCc3Uu1-26" value="" style="endArrow=classic;html=1;rounded=0;exitX=0.15;exitY=1.022;exitDx=0;exitDy=0;exitPerimeter=0;" edge="1" parent="WIyWlLk6GJQsqaUBKTNV-1" source="sZSXKO09oTRAToCc3Uu1-2">
          <mxGeometry width="50" height="50" relative="1" as="geometry">
            <mxPoint x="350" y="390" as="sourcePoint" />
            <mxPoint x="560" y="690" as="targetPoint" />
          </mxGeometry>
        </mxCell>
        <mxCell id="LcgxgDH8Ww4sK2gUJoQu-5" value="" style="endArrow=classic;html=1;rounded=0;exitX=1;exitY=0.5;exitDx=0;exitDy=0;" edge="1" parent="WIyWlLk6GJQsqaUBKTNV-1" source="zkfFHV4jXpPFQw0GAbJ--3">
          <mxGeometry width="50" height="50" relative="1" as="geometry">
            <mxPoint x="610" y="140" as="sourcePoint" />
            <mxPoint x="460" y="230" as="targetPoint" />
          </mxGeometry>
        </mxCell>
        <mxCell id="LcgxgDH8Ww4sK2gUJoQu-6" value="" style="endArrow=classic;html=1;rounded=0;" edge="1" parent="WIyWlLk6GJQsqaUBKTNV-1">
          <mxGeometry width="50" height="50" relative="1" as="geometry">
            <mxPoint x="160" y="110" as="sourcePoint" />
            <mxPoint x="110" y="240" as="targetPoint" />
          </mxGeometry>
        </mxCell>
        <mxCell id="LcgxgDH8Ww4sK2gUJoQu-7" value="GeoLocation_" style="swimlane;fontStyle=0;align=center;verticalAlign=top;childLayout=stackLayout;horizontal=1;startSize=26;horizontalStack=0;resizeParent=1;resizeLast=0;collapsible=1;marginBottom=0;rounded=0;shadow=0;strokeWidth=1;fillColor=#99CCFF;" vertex="1" parent="WIyWlLk6GJQsqaUBKTNV-1">
          <mxGeometry x="650" y="240" width="280" height="340" as="geometry">
            <mxRectangle x="508" y="120" width="160" height="26" as="alternateBounds" />
          </mxGeometry>
        </mxCell>
        <mxCell id="LcgxgDH8Ww4sK2gUJoQu-8" value="x(); double&#xa;&#xa;y(): double &#xa;&#xa;z(): double&#xa;&#xa;" style="text;align=left;verticalAlign=top;spacingLeft=4;spacingRight=4;overflow=hidden;rotatable=0;points=[[0,0.5],[1,0.5]];portConstraint=eastwest;rounded=0;shadow=0;html=0;" vertex="1" parent="LcgxgDH8Ww4sK2gUJoQu-7">
          <mxGeometry y="26" width="280" height="84" as="geometry" />
        </mxCell>
        <mxCell id="LcgxgDH8Ww4sK2gUJoQu-11" value="" style="line;html=1;strokeWidth=1;align=left;verticalAlign=middle;spacingTop=-1;spacingLeft=3;spacingRight=3;rotatable=0;labelPosition=right;points=[];portConstraint=eastwest;" vertex="1" parent="LcgxgDH8Ww4sK2gUJoQu-7">
          <mxGeometry y="110" width="280" height="20" as="geometry" />
        </mxCell>
        <mxCell id="LcgxgDH8Ww4sK2gUJoQu-12" value="GeoLocation_(a: double ,  b: double , c: double)&#xa;&#xa;GeoLocation_(G: GeoLocation)&#xa;&#xa;toString() : string&#xa;&#xa;x(): double&#xa;&#xa;y(): double&#xa;&#xa;z(): double&#xa;&#xa;distance(GeoLocation g) : double&#xa;&#xa;&#xa;&#xa;" style="text;align=left;verticalAlign=top;spacingLeft=4;spacingRight=4;overflow=hidden;rotatable=0;points=[[0,0.5],[1,0.5]];portConstraint=eastwest;rounded=0;shadow=0;html=0;" vertex="1" parent="LcgxgDH8Ww4sK2gUJoQu-7">
          <mxGeometry y="130" width="280" height="210" as="geometry" />
        </mxCell>
        <mxCell id="LcgxgDH8Ww4sK2gUJoQu-13" value="" style="endArrow=classic;html=1;rounded=0;exitX=0.75;exitY=1;exitDx=0;exitDy=0;" edge="1" parent="WIyWlLk6GJQsqaUBKTNV-1" source="zkfFHV4jXpPFQw0GAbJ--17">
          <mxGeometry width="50" height="50" relative="1" as="geometry">
            <mxPoint x="780" y="220" as="sourcePoint" />
            <mxPoint x="790" y="230" as="targetPoint" />
          </mxGeometry>
        </mxCell>
        <mxCell id="LcgxgDH8Ww4sK2gUJoQu-16" value="Node" style="swimlane;fontStyle=0;align=center;verticalAlign=top;childLayout=stackLayout;horizontal=1;startSize=26;horizontalStack=0;resizeParent=1;resizeLast=0;collapsible=1;marginBottom=0;rounded=0;shadow=0;strokeWidth=1;fillColor=#99CCFF;" vertex="1" parent="WIyWlLk6GJQsqaUBKTNV-1">
          <mxGeometry x="870" y="620" width="260" height="500" as="geometry">
            <mxRectangle x="340" y="380" width="170" height="26" as="alternateBounds" />
          </mxGeometry>
        </mxCell>
        <mxCell id="LcgxgDH8Ww4sK2gUJoQu-20" value="geo: GeoLocation&#xa;&#xa;id: int&#xa;&#xa;Tag: int&#xa;&#xa;weight: double&#xa;&#xa;info: string&#xa;" style="text;align=left;verticalAlign=top;spacingLeft=4;spacingRight=4;overflow=hidden;rotatable=0;points=[[0,0.5],[1,0.5]];portConstraint=eastwest;" vertex="1" parent="LcgxgDH8Ww4sK2gUJoQu-16">
          <mxGeometry y="26" width="260" height="134" as="geometry" />
        </mxCell>
        <mxCell id="LcgxgDH8Ww4sK2gUJoQu-22" value="" style="line;html=1;strokeWidth=1;align=left;verticalAlign=middle;spacingTop=-1;spacingLeft=3;spacingRight=3;rotatable=0;labelPosition=right;points=[];portConstraint=eastwest;" vertex="1" parent="LcgxgDH8Ww4sK2gUJoQu-16">
          <mxGeometry y="160" width="260" height="20" as="geometry" />
        </mxCell>
        <mxCell id="LcgxgDH8Ww4sK2gUJoQu-23" value="Node (g: GeoLocation , id: int)&#xa;&#xa;toString(): string&#xa;&#xa;getKey(): int&#xa;&#xa;getLocation(): GetLocation&#xa;&#xa;setLocation(GetLocation g): void&#xa;&#xa;getWeight(): double&#xa;&#xa;setWeight( double w): void &#xa;&#xa;getInfo(): string&#xa;&#xa;setInfo( string s): void &#xa;&#xa;getTag(): int&#xa;&#xa;setTag(int i) : void  &#xa;&#xa;&#xa;" style="text;align=left;verticalAlign=top;spacingLeft=4;spacingRight=4;overflow=hidden;rotatable=0;points=[[0,0.5],[1,0.5]];portConstraint=eastwest;" vertex="1" parent="LcgxgDH8Ww4sK2gUJoQu-16">
          <mxGeometry y="180" width="260" height="320" as="geometry" />
        </mxCell>
        <mxCell id="LcgxgDH8Ww4sK2gUJoQu-25" value="" style="curved=1;endArrow=classic;html=1;rounded=0;exitX=1;exitY=0.5;exitDx=0;exitDy=0;" edge="1" parent="WIyWlLk6GJQsqaUBKTNV-1" source="zkfFHV4jXpPFQw0GAbJ--22">
          <mxGeometry width="50" height="50" relative="1" as="geometry">
            <mxPoint x="1070" y="590" as="sourcePoint" />
            <mxPoint x="1030" y="600" as="targetPoint" />
            <Array as="points">
              <mxPoint x="1130" y="290" />
            </Array>
          </mxGeometry>
        </mxCell>
        <mxCell id="LcgxgDH8Ww4sK2gUJoQu-26" value="" style="endArrow=classic;html=1;rounded=0;exitX=0.975;exitY=1.024;exitDx=0;exitDy=0;exitPerimeter=0;" edge="1" parent="WIyWlLk6GJQsqaUBKTNV-1" source="sZSXKO09oTRAToCc3Uu1-2">
          <mxGeometry width="50" height="50" relative="1" as="geometry">
            <mxPoint x="670" y="450" as="sourcePoint" />
            <mxPoint x="850" y="720" as="targetPoint" />
          </mxGeometry>
        </mxCell>
        <mxCell id="LcgxgDH8Ww4sK2gUJoQu-31" value="DirectedWeightedGraph_" style="swimlane;fontStyle=0;align=center;verticalAlign=top;childLayout=stackLayout;horizontal=1;startSize=26;horizontalStack=0;resizeParent=1;resizeLast=0;collapsible=1;marginBottom=0;rounded=0;shadow=0;strokeWidth=1;strokeColor=#000000;fillColor=#99CCFF;" vertex="1" parent="WIyWlLk6GJQsqaUBKTNV-1">
          <mxGeometry x="440" y="1210" width="290" height="600" as="geometry">
            <mxRectangle x="340" y="380" width="170" height="26" as="alternateBounds" />
          </mxGeometry>
        </mxCell>
        <mxCell id="LcgxgDH8Ww4sK2gUJoQu-32" value="all :  HashMap&lt; Integer, Node&gt;&#xa;&#xa;big:  HashMap&lt; Integer , HashMap&lt;Integer,Edge&gt; &gt;&#xa;&#xa;allofed: HashMap&lt;String, Edge&gt; &#xa;&#xa;mc: int&#xa;&#xa;nodes: boolean&#xa;&#xa;edges: boolean&#xa;&#xa; " style="text;align=left;verticalAlign=top;spacingLeft=4;spacingRight=4;overflow=hidden;rotatable=0;points=[[0,0.5],[1,0.5]];portConstraint=eastwest;fillColor=none;strokeColor=#000000;" vertex="1" parent="LcgxgDH8Ww4sK2gUJoQu-31">
          <mxGeometry y="26" width="290" height="164" as="geometry" />
        </mxCell>
        <mxCell id="LcgxgDH8Ww4sK2gUJoQu-34" value="&#xa;DirectedWeightedGraph_(): void&#xa;&#xa;DirectedWeightedGraph_(path: string)&#xa;&#xa;getNode( int key): NodeData&#xa;&#xa;getEdge(int src , int dest) : EdgeData&#xa;&#xa;addNode( NodeData n): void&#xa;&#xa;connect( int src , int dest ,double w): void&#xa;&#xa;nodeIter(): Iterator &lt; NodaData&gt; &#xa;&#xa;edgeIter(): Iterator &lt; EdgaData&gt; &#xa;&#xa;edgaIter( int node_id) : Iterator &lt; EdgaData&gt;&#xa;&#xa;removeNode( int key) : NodeData&#xa;&#xa;removeEdge(int src , int dest) : EdgaData&#xa;&#xa;nodeSize(): int&#xa;&#xa;edgaSize(): int &#xa;&#xa;getMC(): int &#xa;&#xa;&#xa;&#xa;&#xa;&#xa;&#xa;&#xa;" style="text;align=left;verticalAlign=top;spacingLeft=4;spacingRight=4;overflow=hidden;rotatable=0;points=[[0,0.5],[1,0.5]];portConstraint=eastwest;fillColor=none;strokeColor=#000000;" vertex="1" parent="LcgxgDH8Ww4sK2gUJoQu-31">
          <mxGeometry y="190" width="290" height="410" as="geometry" />
        </mxCell>
        <mxCell id="LcgxgDH8Ww4sK2gUJoQu-35" value="" style="endArrow=classic;html=1;rounded=0;fontSize=12;exitX=0.519;exitY=1.017;exitDx=0;exitDy=0;exitPerimeter=0;" edge="1" parent="WIyWlLk6GJQsqaUBKTNV-1" source="sZSXKO09oTRAToCc3Uu1-24">
          <mxGeometry width="50" height="50" relative="1" as="geometry">
            <mxPoint x="510" y="1130" as="sourcePoint" />
            <mxPoint x="520" y="1200" as="targetPoint" />
          </mxGeometry>
        </mxCell>
        <mxCell id="LcgxgDH8Ww4sK2gUJoQu-36" value="DirectedWeightedGraphAlgorithms" style="swimlane;fontStyle=0;align=center;verticalAlign=top;childLayout=stackLayout;horizontal=1;startSize=26;horizontalStack=0;resizeParent=1;resizeLast=0;collapsible=1;marginBottom=0;rounded=0;shadow=0;strokeWidth=1;strokeColor=#000000;fillColor=#97D077;" vertex="1" parent="WIyWlLk6GJQsqaUBKTNV-1">
          <mxGeometry x="-100" y="1010" width="310" height="320" as="geometry">
            <mxRectangle x="340" y="380" width="170" height="26" as="alternateBounds" />
          </mxGeometry>
        </mxCell>
        <mxCell id="LcgxgDH8Ww4sK2gUJoQu-37" value="init (g:DirectedWeightedGraph) : void&#xa;&#xa;getGraph(): DirectedWeightedGraph&#xa;&#xa;copy(): DirectedWeightedGraph&#xa;&#xa;isConnected(): boolean&#xa;&#xa;shortestPathDist( src: int , dest: int ) : double&#xa;&#xa;shortestPath( src: int , dest: int ) : List&lt;NodeData&gt;&#xa;&#xa;center(): NodeData&#xa;&#xa;tsp(cities: List&lt;NodeData&gt;): List&lt;NodeData&gt; &#xa;&#xa;save(file: String):  boolean&#xa;&#xa;load(file: String):  boolean&#xa;&#xa; " style="text;align=left;verticalAlign=top;spacingLeft=4;spacingRight=4;overflow=hidden;rotatable=0;points=[[0,0.5],[1,0.5]];portConstraint=eastwest;fillColor=none;strokeColor=#000000;" vertex="1" parent="LcgxgDH8Ww4sK2gUJoQu-36">
          <mxGeometry y="26" width="310" height="294" as="geometry" />
        </mxCell>
        <mxCell id="LcgxgDH8Ww4sK2gUJoQu-39" value="" style="curved=1;endArrow=classic;html=1;rounded=0;fontSize=12;" edge="1" parent="WIyWlLk6GJQsqaUBKTNV-1">
          <mxGeometry width="50" height="50" relative="1" as="geometry">
            <mxPoint x="500" y="1120" as="sourcePoint" />
            <mxPoint x="110" y="1000" as="targetPoint" />
            <Array as="points">
              <mxPoint x="380" y="1240" />
              <mxPoint x="250" y="720" />
            </Array>
          </mxGeometry>
        </mxCell>
        <mxCell id="LcgxgDH8Ww4sK2gUJoQu-42" value="Ex2" style="swimlane;fontStyle=0;align=center;verticalAlign=top;childLayout=stackLayout;horizontal=1;startSize=26;horizontalStack=0;resizeParent=1;resizeLast=0;collapsible=1;marginBottom=0;rounded=0;shadow=0;strokeWidth=1;strokeColor=#000000;fillColor=#97D077;" vertex="1" parent="WIyWlLk6GJQsqaUBKTNV-1">
          <mxGeometry x="-540" y="600" width="370" height="110" as="geometry">
            <mxRectangle x="340" y="380" width="170" height="26" as="alternateBounds" />
          </mxGeometry>
        </mxCell>
        <mxCell id="LcgxgDH8Ww4sK2gUJoQu-43" value="getGrapg(json_file: String): DirectedWeightedGraph&#xa;&#xa;getGrapgAlgo(json_file :String) : DirectedWeightedGraphAlgorithms&#xa;&#xa;runGUI(json_file: String) : void&#xa;" style="text;align=left;verticalAlign=top;spacingLeft=4;spacingRight=4;overflow=hidden;rotatable=0;points=[[0,0.5],[1,0.5]];portConstraint=eastwest;fillColor=none;strokeColor=#000000;" vertex="1" parent="LcgxgDH8Ww4sK2gUJoQu-42">
          <mxGeometry y="26" width="370" height="84" as="geometry" />
        </mxCell>
        <mxCell id="LcgxgDH8Ww4sK2gUJoQu-44" value="" style="endArrow=classic;html=1;rounded=0;fontSize=12;" edge="1" parent="WIyWlLk6GJQsqaUBKTNV-1">
          <mxGeometry width="50" height="50" relative="1" as="geometry">
            <mxPoint x="-210" y="720" as="sourcePoint" />
            <mxPoint x="10" y="990" as="targetPoint" />
          </mxGeometry>
        </mxCell>
        <mxCell id="LcgxgDH8Ww4sK2gUJoQu-45" value="DirectedWeightedGraphAlgorithms_" style="swimlane;fontStyle=0;align=center;verticalAlign=top;childLayout=stackLayout;horizontal=1;startSize=26;horizontalStack=0;resizeParent=1;resizeLast=0;collapsible=1;marginBottom=0;rounded=0;shadow=0;strokeWidth=1;strokeColor=#000000;fillColor=#99CCFF;" vertex="1" parent="WIyWlLk6GJQsqaUBKTNV-1">
          <mxGeometry x="-230" y="1440" width="570" height="490" as="geometry">
            <mxRectangle x="340" y="380" width="170" height="26" as="alternateBounds" />
          </mxGeometry>
        </mxCell>
        <mxCell id="LcgxgDH8Ww4sK2gUJoQu-46" value="g : DirectedWeightedGraph_&#xa;&#xa;&#xa;&#xa;" style="text;align=left;verticalAlign=top;spacingLeft=4;spacingRight=4;overflow=hidden;rotatable=0;points=[[0,0.5],[1,0.5]];portConstraint=eastwest;fillColor=none;strokeColor=#000000;" vertex="1" parent="LcgxgDH8Ww4sK2gUJoQu-45">
          <mxGeometry y="26" width="570" height="34" as="geometry" />
        </mxCell>
        <mxCell id="LcgxgDH8Ww4sK2gUJoQu-47" value="&#xa;DirectedWeightedGraphAlgorithms_( g : DirectedWeightedGraph_)&#xa;&#xa;init (g:DirectedWeightedGraph) : void&#xa;&#xa;getGraph(): DirectedWeightedGraph&#xa;&#xa;copy(): DirectedWeightedGraph&#xa;&#xa;isConnected(): boolean&#xa;&#xa;havePath( src:int , dest: int): boolean&#xa;&#xa;shortestPathDist( src: int , dest: int ) : double&#xa;&#xa;shortestPath( src: int , dest: int ) : List&lt;NodeData&gt;&#xa;&#xa;help( priorityQueue tor) : void&#xa;&#xa;minweight(ArrayList&lt;NodeData&gt; ansss): double&#xa;&#xa;rec( List&lt;NodeData&gt; cities , NodeDeta n , Iterator t , ArrayList&lt;NodeData&gt; good) : ArrayList&lt;NodeData&gt;&#xa;&#xa;center(): NodeData&#xa;&#xa;tsp(cities: List&lt;NodeData&gt;): List&lt;NodeData&gt; &#xa;&#xa;save(file: String):  boolean&#xa;&#xa;load(file: String):  boolean&#xa;&#xa; " style="text;align=left;verticalAlign=top;spacingLeft=4;spacingRight=4;overflow=hidden;rotatable=0;points=[[0,0.5],[1,0.5]];portConstraint=eastwest;fillColor=none;strokeColor=#000000;" vertex="1" parent="LcgxgDH8Ww4sK2gUJoQu-45">
          <mxGeometry y="60" width="570" height="430" as="geometry" />
        </mxCell>
        <mxCell id="LcgxgDH8Ww4sK2gUJoQu-53" value="" style="endArrow=classic;html=1;rounded=0;fontSize=12;exitX=0.438;exitY=1.012;exitDx=0;exitDy=0;exitPerimeter=0;" edge="1" parent="WIyWlLk6GJQsqaUBKTNV-1" source="LcgxgDH8Ww4sK2gUJoQu-37">
          <mxGeometry width="50" height="50" relative="1" as="geometry">
            <mxPoint x="100" y="1400" as="sourcePoint" />
            <mxPoint x="36" y="1420" as="targetPoint" />
          </mxGeometry>
        </mxCell>
        <mxCell id="LcgxgDH8Ww4sK2gUJoQu-57" value="&lt;font style=&quot;font-size: 24px&quot;&gt;class&lt;/font&gt;" style="ellipse;whiteSpace=wrap;html=1;aspect=fixed;fontSize=12;strokeColor=#000000;fillColor=#99CCFF;" vertex="1" parent="WIyWlLk6GJQsqaUBKTNV-1">
          <mxGeometry x="-450" y="110" width="135" height="135" as="geometry" />
        </mxCell>
        <mxCell id="LcgxgDH8Ww4sK2gUJoQu-58" value="&lt;font style=&quot;font-size: 24px&quot;&gt;Interface&lt;/font&gt;" style="ellipse;whiteSpace=wrap;html=1;aspect=fixed;fontSize=12;strokeColor=#000000;fillColor=#97D077;" vertex="1" parent="WIyWlLk6GJQsqaUBKTNV-1">
          <mxGeometry x="-330" y="110" width="130" height="130" as="geometry" />
        </mxCell>
      </root>
    </mxGraphModel>
  </diagram>
  <diagram id="fSagbi3p1lavD6yNkKkB" name="Page-2">
    <mxGraphModel dx="1703" dy="727" grid="1" gridSize="10" guides="1" tooltips="1" connect="1" arrows="1" fold="1" page="1" pageScale="1" pageWidth="827" pageHeight="1169" math="0" shadow="0">
      <root>
        <mxCell id="K62CEuad__NQqnz4Fl1--0" />
        <mxCell id="K62CEuad__NQqnz4Fl1--1" parent="K62CEuad__NQqnz4Fl1--0" />
      </root>
    </mxGraphModel>
  </diagram>
</mxfile>
